<mxfile host="app.diagrams.net" modified="2024-04-26T04:01:28.119Z" agent="Mozilla/5.0 (Macintosh; Intel Mac OS X 10_15_7) AppleWebKit/537.36 (KHTML, like Gecko) Chrome/124.0.0.0 Safari/537.36" version="24.2.3" etag="3Lf-KE5XhZQf1tJKbRq6" type="github">
  <diagram name="Page-1" id="4lHo2-_yg5zYZl-CJrND">
    <mxGraphModel>
      <root>
        <mxCell id="0" />
        <mxCell id="1" parent="0" />
      </root>
    </mxGraphModel>
  </diagram>
</mxfile>
